<svg width="410" height="404" viewBox="0 0 410 404" fill="none" xmlns="http://www.w3.org/2000/svg">
<path d="M160.524 135.253V265.956L201.362 315.888V223.03L194.871 213.394H201.362V127.895H150.924L160.524 135.253Z" fill="white"/>
<path d="M210.689 127.895H259.37L249.581 135.946V161.327H236.009V145.048H223.48V194.235H249.581V213.139H223.48V274.579L236.009 258.825V246.748H249.581V265.301L210.689 315.714V127.895Z" fill="white"/>
<path d="M174.182 144.714H187.434V195.172H174.182V144.714Z" fill="#292929"/>
<path d="M174.182 257.561V211.657H177.021L187.704 227.776V274.556L174.182 257.561Z" fill="#292929"/>
<path d="M120.445 204.334L122.724 240.061C116.014 223.489 98.4102 212.759 90.4471 209.465C86.8729 195.022 69.9321 169.368 61.9082 158.345C89.5536 169.595 112.451 193.692 120.445 204.334Z" fill="#FFD700"/>
<path d="M124.725 270.087L126.549 294.411C122.61 286.961 110.987 280.285 105.669 277.878C104.064 267.996 96.0647 248.549 92.2656 240.061C101.967 242.038 118.495 261.915 124.725 270.087Z" fill="#FFD700"/>
<path d="M291.059 204.334L288.809 240.061C295.436 223.489 312.819 212.759 320.682 209.465C324.211 195.022 340.941 169.368 348.864 158.345C321.564 169.595 298.952 193.692 291.059 204.334Z" fill="#FFD700"/>
<path d="M286.832 270.087L285.031 294.412C288.921 286.962 300.398 280.286 305.65 277.878C307.235 267.996 315.134 248.55 318.886 240.061C309.306 242.038 292.985 261.915 286.832 270.087Z" fill="#FFD700"/>
<path d="M135.787 225.942C137.739 275.288 177.83 313.745 198.97 338L134.252 296.912L123.862 140.778C60.4766 74.4689 46.0756 86.8054 24.2122 95.7425C21.4658 85.7891 6.92639 73.7213 0 68.9315C53.5561 53.651 114.466 101.817 138.227 127.81C136.601 139.96 133.836 176.596 135.787 225.942Z" fill="#FFD700"/>
<path d="M274.212 225.942C272.26 275.288 232.17 313.745 211.029 338L275.748 296.912L286.137 140.778C349.523 74.4689 363.924 86.8054 385.787 95.7425C388.533 85.7891 403.073 73.7213 409.999 68.9315C356.443 53.651 295.533 101.817 271.772 127.81C273.399 139.96 276.163 176.596 274.212 225.942Z" fill="#FFD700"/>
<path d="M120.587 181.394L119.028 153.879C94.5923 125.745 48.5527 119.742 30.1465 115.455C45.1894 126.787 55.9518 133.527 58.1226 138.9C84.1723 143.198 111.293 170.865 120.587 181.394Z" fill="#FFD700"/>
<path d="M289.412 181.394L290.971 153.879C315.407 125.745 361.447 119.742 379.853 115.455C364.81 126.787 354.048 133.527 351.877 138.9C325.827 143.198 298.707 170.865 289.412 181.394Z" fill="#FFD700"/>
</svg>
